<?xml version="1.0" encoding="utf-8"?>
<!-- Generator: Adobe Illustrator 24.0.1, SVG Export Plug-In . SVG Version: 6.00 Build 0)  -->
<svg version="1.1" id="Layer_1" xmlns="http://www.w3.org/2000/svg" xmlns:xlink="http://www.w3.org/1999/xlink" x="0px" y="0px"
	 viewBox="0 0 1200 1200" style="enable-background:new 0 0 1200 1200;" xml:space="preserve">
<style type="text/css">
	.st0{fill:url(#SVGID_1_);}
	.st1{fill:url(#SVGID_2_);}
	.st2{fill:url(#SVGID_3_);}
	.st3{fill:url(#SVGID_4_);}
	.st4{fill:url(#SVGID_5_);}
	.st5{fill:url(#SVGID_6_);}
	.st6{fill:url(#SVGID_7_);}
	.st7{fill:url(#SVGID_8_);}
	.st8{fill:url(#SVGID_9_);}
	.st9{fill:url(#SVGID_10_);}
	.st10{fill:url(#SVGID_11_);}
	.st11{fill:url(#SVGID_12_);}
	.st12{fill:#F9F9F9;}
</style>
<g>
	<g>
		<linearGradient id="SVGID_1_" gradientUnits="userSpaceOnUse" x1="265.85" y1="360.5615" x2="265.85" y2="750.0647">
			<stop  offset="0" style="stop-color:#6DE711"/>
			<stop  offset="1" style="stop-color:#1A7FA4"/>
		</linearGradient>
		<path class="st0" d="M335.2,580.5c0,0,80.5-39,70.6-118.4c-4.7-37.7-27.9-60.7-50.9-74.5c-21.5-12.9-46.3-19.2-71.4-19.2H113
			v339.4l15.4,32.6c10.2,11.2,23.1,12.1,38.6,4l251.9,0L335.2,580.5z M245.1,564.9h-43.6V397h47.8c12.3,0,24.6,3.1,35,9.7
			c15.8,9.9,34.5,29.2,36.9,65.8c2.3,35-13.9,59.1-29.4,73.9C279.2,558.4,262.4,564.9,245.1,564.9z"/>
		<g>
			<g>
				<linearGradient id="SVGID_2_" gradientUnits="userSpaceOnUse" x1="503.9755" y1="360.5615" x2="503.9755" y2="750.0647">
					<stop  offset="0" style="stop-color:#6DE711"/>
					<stop  offset="1" style="stop-color:#1A7FA4"/>
				</linearGradient>
				<polygon class="st1" points="418.7,368.4 488.6,368.4 589.2,744.5 566.7,744.5 				"/>
				<linearGradient id="SVGID_3_" gradientUnits="userSpaceOnUse" x1="679.6419" y1="360.5615" x2="679.6419" y2="750.0647">
					<stop  offset="0" style="stop-color:#6DE711"/>
					<stop  offset="1" style="stop-color:#1A7FA4"/>
				</linearGradient>
				<polygon class="st2" points="764.9,368.4 695,368.4 594.4,744.5 617,744.5 				"/>
			</g>
			<g>
				<linearGradient id="SVGID_4_" gradientUnits="userSpaceOnUse" x1="591.158" y1="360.5615" x2="591.158" y2="750.0647">
					<stop  offset="0" style="stop-color:#6DE711"/>
					<stop  offset="1" style="stop-color:#1A7FA4"/>
				</linearGradient>
				<polygon class="st3" points="582.7,635.2 599.7,635.2 596.4,706.1 586,706.1 				"/>
				<linearGradient id="SVGID_5_" gradientUnits="userSpaceOnUse" x1="591.1581" y1="360.5615" x2="591.1581" y2="750.0647">
					<stop  offset="0" style="stop-color:#6DE711"/>
					<stop  offset="1" style="stop-color:#1A7FA4"/>
				</linearGradient>
				<polygon class="st4" points="604.4,531.4 601.2,601.7 581.1,601.7 577.9,531.4 				"/>
				<linearGradient id="SVGID_6_" gradientUnits="userSpaceOnUse" x1="591.158" y1="360.5615" x2="591.158" y2="750.0647">
					<stop  offset="0" style="stop-color:#6DE711"/>
					<stop  offset="1" style="stop-color:#1A7FA4"/>
				</linearGradient>
				<polygon class="st5" points="609.3,425.3 605.9,499.2 576.4,499.2 573,425.3 				"/>
				<linearGradient id="SVGID_7_" gradientUnits="userSpaceOnUse" x1="591.1581" y1="360.5615" x2="591.1581" y2="750.0647">
					<stop  offset="0" style="stop-color:#6DE711"/>
					<stop  offset="1" style="stop-color:#1A7FA4"/>
				</linearGradient>
				<polygon class="st6" points="612,368.4 610.9,392.8 571.5,392.8 570.3,368.4 				"/>
			</g>
		</g>
		<g>
			<linearGradient id="SVGID_8_" gradientUnits="userSpaceOnUse" x1="943.8258" y1="360.5615" x2="943.8258" y2="750.0647">
				<stop  offset="0" style="stop-color:#6DE711"/>
				<stop  offset="1" style="stop-color:#1A7FA4"/>
			</linearGradient>
			<path class="st7" d="M901.5,368.4V397h13.8c11.7,0,23.2,4,32.2,11.6c21.4,18,55.2,60.2,56.4,147.8
				c1.2,90.1-35.8,132.2-58.1,149.3c-8.6,6.6-19.3,10.1-30.2,10.1h-14.1v-24.1H795.5v52.7h139c5.8,0,11.5-0.7,17-2.2
				c32.7-8.8,137.6-47.7,140.7-185.8c3.1-138.3-102.7-177.1-135.5-185.9c-5.5-1.5-11.2-2.2-16.9-2.2H901.5z"/>
			<linearGradient id="SVGID_9_" gradientUnits="userSpaceOnUse" x1="848.2599" y1="360.5615" x2="848.2599" y2="750.0647">
				<stop  offset="0" style="stop-color:#6DE711"/>
				<stop  offset="1" style="stop-color:#1A7FA4"/>
			</linearGradient>
			<rect x="795.5" y="609.6" class="st8" width="105.6" height="52"/>
			<linearGradient id="SVGID_10_" gradientUnits="userSpaceOnUse" x1="848.2599" y1="360.5615" x2="848.2599" y2="750.0647">
				<stop  offset="0" style="stop-color:#6DE711"/>
				<stop  offset="1" style="stop-color:#1A7FA4"/>
			</linearGradient>
			<rect x="795.5" y="524.3" class="st9" width="105.6" height="52"/>
			<linearGradient id="SVGID_11_" gradientUnits="userSpaceOnUse" x1="848.2599" y1="360.5615" x2="848.2599" y2="750.0647">
				<stop  offset="0" style="stop-color:#6DE711"/>
				<stop  offset="1" style="stop-color:#1A7FA4"/>
			</linearGradient>
			<rect x="795.5" y="439.1" class="st10" width="105.6" height="52"/>
			<linearGradient id="SVGID_12_" gradientUnits="userSpaceOnUse" x1="848.2599" y1="360.5615" x2="848.2599" y2="750.0647">
				<stop  offset="0" style="stop-color:#6DE711"/>
				<stop  offset="1" style="stop-color:#1A7FA4"/>
			</linearGradient>
			<rect x="823.2" y="368.4" class="st11" width="50.1" height="40.3"/>
		</g>
	</g>
	<g>
		<rect x="932.5" y="382.4" class="st12" width="22.6" height="4.8"/>
		
			<rect x="932.5" y="382.4" transform="matrix(-1.836970e-16 1 -1 -1.836970e-16 1328.6331 -559.0186)" class="st12" width="22.6" height="4.8"/>
	</g>
	<g>
		<rect x="932.5" y="722.9" class="st12" width="22.6" height="4.8"/>
	</g>
	<g>
		<g>
			<path class="st12" d="M298.7,652.6l-7.3-20.8l-18.7-53.1H142.5v5.9H267l18.8,50.5l4.8,13l4.3,11.6l-12.8,23.4L234,592.5h-91.5
				v63.4h45.8l22.8,36.4h33.6v7.2h-37.6l-22.8-36.4h-41.8v1.8c-34.7,20-34.7,55.5-34.7,55.5l14.9,1v-0.1c0-15.3,12.4-27.7,27.7-27.7
				c15.3,0,27.7,12.4,27.7,27.7c0,5.3-1.6,10.4-4.2,14.6l4.7,1.4h86.7l36.9-75L298.7,652.6z M153.1,620.7l11.7-18.7l4,2.5
				l-11.7,18.7L153.1,620.7z M166.2,634.8l-4.1-2.2l10-18.7l4.1,2.2L166.2,634.8z"/>
		</g>
		<g>
			<path class="st12" d="M314.5,630.8v18.6c0,5.5-5.9,8.9-10.7,6.1l-5.1-2.9l-8-4.6l-4.8-13l5.5-3.2l12.4-7.2
				C308.6,621.9,314.5,625.3,314.5,630.8z"/>
		</g>
		<g>
			
				<rect x="308.2" y="660.3" transform="matrix(0.9408 -0.339 0.339 0.9408 -216.067 146.1647)" class="st12" width="4.4" height="62.7"/>
		</g>
		<g>
			<path class="st12" d="M321.1,745.7c-13.5,0-24.5-11-24.5-24.5s11-24.5,24.5-24.5c13.5,0,24.5,11,24.5,24.5
				S334.6,745.7,321.1,745.7z M321.1,702.1c-10.5,0-19.1,8.6-19.1,19.1s8.6,19.1,19.1,19.1c10.5,0,19.1-8.6,19.1-19.1
				S331.6,702.1,321.1,702.1z"/>
		</g>
		<g>
			<path class="st12" d="M290.9,721.2h-5.4c0-19.6,16-35.6,35.6-35.6c12.7,0,24.5,6.8,30.8,17.8l-4.7,2.7
				c-5.4-9.3-15.4-15.1-26.1-15.1C304.4,691,290.9,704.5,290.9,721.2z"/>
		</g>
		<g>
			<path class="st12" d="M150.3,737.9c-9.1,0-16.6-7.4-16.6-16.6c0-9.1,7.4-16.6,16.6-16.6c9.1,0,16.6,7.4,16.6,16.6
				C166.9,730.5,159.4,737.9,150.3,737.9z M150.3,710.7c-5.9,0-10.6,4.8-10.6,10.6s4.8,10.6,10.6,10.6c5.9,0,10.6-4.8,10.6-10.6
				S156.2,710.7,150.3,710.7z"/>
		</g>
		<g>
			<path class="st12" d="M150.3,754.4c-18.3,0-33.1-14.8-33.1-33.1s14.8-33.1,33.1-33.1c18.3,0,33.1,14.8,33.1,33.1
				S168.6,754.4,150.3,754.4z M150.3,695.6c-14.2,0-25.8,11.6-25.8,25.8s11.6,25.8,25.8,25.8c14.2,0,25.8-11.6,25.8-25.8
				S164.5,695.6,150.3,695.6z"/>
		</g>
		<g>
			<path class="st12" d="M321.1,730.5c-0.4,0-0.9,0-1.3-0.1c-5.1-0.7-8.7-5.5-7.9-10.6c0.7-5.1,5.5-8.7,10.6-7.9
				c5.1,0.7,8.7,5.5,7.9,10.6l0,0l0,0C329.6,727.1,325.6,730.5,321.1,730.5z M321.1,716.2c-2.4,0-4.6,1.8-4.9,4.3
				c-0.4,2.7,1.5,5.2,4.2,5.6c2.7,0.4,5.2-1.5,5.6-4.2l0,0c0.4-2.7-1.5-5.2-4.2-5.6C321.5,716.2,321.3,716.2,321.1,716.2z"/>
		</g>
	</g>
	<g>
		<g>
			<g>
				<path d="M425,782.9h36.1l4.5,13.5l-6.7,2.3l-3.1-8.7h-15.4v12.4h14.1v7.1h-14.1V823h17.3l3-8.3l6.7,2.3l-4.5,13.1h-38V823h7.1
					l0.1-33H425V782.9z"/>
				<path d="M494.4,782.9h21v7.1h-5.1l7.7,20l3.6,11.5l3.4-11.2l7.3-20.3H527v-7.1h19.9v7.1h-6.6l-14.4,40.1h-8.8L501.4,790h-7
					V782.9z"/>
				<path d="M637.4,831.6c-3.9,0-7.2-0.3-10.1-1c-2.9-0.6-5.3-1.3-7.3-2.1l-1.5-10.5l6.7-0.8l1,5.9c1.6,0.5,3.2,1,4.9,1.3
					c1.7,0.3,3.6,0.5,5.8,0.5c2,0,3.9-0.3,5.6-0.8c1.7-0.5,3.1-1.4,4.1-2.5c1-1.1,1.6-2.6,1.6-4.4c0-1.9-0.5-3.5-1.6-4.8
					c-1.1-1.3-3.2-2.2-6.5-2.7l-5.9-1c-4.7-0.8-8.3-2.4-10.8-4.7c-2.5-2.3-3.8-5.4-3.8-9.1c0-2.8,0.7-5.2,2.2-7.2s3.6-3.6,6.3-4.7
					c2.7-1.1,5.9-1.6,9.6-1.6c1.9,0,3.7,0.1,5.4,0.3c1.7,0.2,3.3,0.5,4.9,0.9c1.6,0.4,3.2,1,4.9,1.7l1.4,11.1l-7,0.7l-1-6.9
					c-1.1-0.4-2.4-0.7-3.9-0.9c-1.4-0.2-3.1-0.4-4.8-0.4c-3.3,0-5.8,0.6-7.7,1.7c-1.9,1.2-2.8,2.7-2.8,4.8c0,2,0.7,3.6,2,4.7
					c1.4,1.1,3.5,1.9,6.4,2.3l6.5,1.1c4.9,0.7,8.5,2.2,10.7,4.6c2.2,2.4,3.3,5.4,3.3,9c0,2.8-0.5,5.2-1.6,7.2
					c-1.1,2-2.5,3.6-4.3,4.8c-1.8,1.2-3.8,2.1-5.9,2.6C641.8,831.3,639.6,831.6,637.4,831.6z"/>
				<path d="M728.9,813c0,5.8-1.5,10.4-4.5,13.7c-3,3.3-7.6,4.9-13.7,4.9c-6,0-10.5-1.6-13.5-4.9c-2.9-3.3-4.4-7.9-4.4-13.7v-23
					h-7.1v-7.1h20.1v7.1h-4.8v24.8c0,3.5,0.9,6,2.6,7.6c1.7,1.6,4.1,2.4,7.1,2.4c3.1,0,5.5-0.9,7.3-2.6c1.8-1.7,2.7-4.5,2.7-8.1v-24
					h-4.7v-7.1H736v7.1h-7.1V813z"/>
				<path d="M786.6,782.9c6,0,10.6,1.3,13.8,3.9c3.2,2.6,4.8,6.4,4.8,11.3c0,5-1.6,8.9-4.8,11.5c-3.2,2.7-7.8,4-13.8,4h-5.9v9.5h8.7
					v7.1h-23.8V823h7v-33h-7v-7.1H786.6z M786.5,806.9c6.7,0,10-2.9,10-8.7c0-5.5-3.3-8.2-10-8.2h-5.7v16.9H786.5z"/>
				<path d="M854.4,782.9c6,0,10.6,1.3,13.8,3.9c3.2,2.6,4.8,6.4,4.8,11.3c0,5-1.6,8.9-4.8,11.5c-3.2,2.7-7.8,4-13.8,4h-5.9v9.5h8.7
					v7.1h-23.8V823h7v-33h-7v-7.1H854.4z M854.3,806.9c6.7,0,10-2.9,10-8.7c0-5.5-3.3-8.2-10-8.2h-5.7v16.9H854.3z"/>
				<path d="M924.8,781.4c4.6,0,8.6,1,12,3c3.5,2,6.1,4.9,8.1,8.6c1.9,3.7,2.9,8.2,2.9,13.4c0,5.2-1,9.7-2.9,13.4
					c-1.9,3.7-4.6,6.6-8,8.7c-3.4,2-7.4,3.1-12,3.1c-4.5,0-8.5-1-11.9-3.1c-3.5-2-6.1-4.9-8.1-8.7c-1.9-3.7-2.9-8.2-2.9-13.4
					c0-5.2,1-9.7,2.9-13.4c1.9-3.7,4.6-6.6,8-8.6C916.4,782.4,920.3,781.4,924.8,781.4z M924.9,788.4c-4.6,0-8.1,1.6-10.6,4.7
					c-2.5,3.1-3.7,7.6-3.7,13.4c0,5.8,1.2,10.3,3.7,13.4c2.5,3.1,6,4.7,10.6,4.7c4.6,0,8.1-1.6,10.6-4.7c2.5-3.1,3.7-7.6,3.7-13.4
					c0-5.8-1.2-10.2-3.7-13.4C933,790,929.5,788.4,924.9,788.4z"/>
				<path d="M978.5,830.1V823h7v-33h-7v-7.1h21.2c4.7,0,8.4,0.6,11,1.8c2.7,1.2,4.5,2.9,5.6,5.1c1.1,2.2,1.6,5,1.6,8.2
					c0,5-1.3,8.7-4,11.3c-2.7,2.5-7,3.8-13.1,3.8h-7.1v10h4.5v7.1H978.5z M993.9,805.9h5.7c2.2,0,4.1-0.2,5.5-0.6
					c1.4-0.4,2.5-1.2,3.2-2.4c0.7-1.1,1-2.8,1-4.9c0-2.1-0.4-3.8-1.1-4.9c-0.7-1.2-1.9-1.9-3.3-2.4c-1.5-0.4-3.3-0.6-5.3-0.6h-5.7
					V805.9z M1010,830.1l-9.7-17.8l7.9-1.2l7.1,11.9h7.8v7.1H1010z"/>
				<path d="M1050,782.9h42.2v14.9h-7.4V790h-9.6l-0.1,33h7.1v7.1h-22.5V823h7.1v-33h-9.5v7.8h-7.5V782.9z"/>
			</g>
		</g>
		<rect x="108.5" y="803.3" width="296" height="6.3"/>
	</g>
</g>
</svg>
