<svg width="48" height="46" viewBox="0 0 48 46" fill="none" xmlns="http://www.w3.org/2000/svg">
<path d="M24 28.7887C31.5609 28.7887 37.7424 22.45 37.7424 14.6444C37.7424 6.83877 31.5609 0.5 24 0.5C16.4391 0.5 10.2576 6.83877 10.2576 14.6444C10.2576 22.45 16.4391 28.7887 24 28.7887ZM30.3859 30.1507C29.7217 29.9412 28.9554 30.0984 28.4446 30.5698L24 34.4464L19.5554 30.5698C18.9935 30.0984 18.2783 29.9412 17.6141 30.1507C14.7533 31.0937 0.5 36.1228 0.5 43.4045C0.5 44.557 1.41957 45.5 2.54348 45.5H45.4565C46.5804 45.5 47.5 44.557 47.5 43.4045C47.5 36.1228 33.2467 31.0937 30.3859 30.1507Z" fill="white"/>
</svg>
